<?xml version="1.0" standalone="no"?>
<!DOCTYPE svg PUBLIC "-//W3C//DTD SVG 20010904//EN"
 "http://www.w3.org/TR/2001/REC-SVG-20010904/DTD/svg10.dtd">
<svg version="1.0" xmlns="http://www.w3.org/2000/svg"
 width="834.000000pt" height="834.000000pt" viewBox="0 0 834.000000 834.000000"
 preserveAspectRatio="xMidYMid meet">

<g transform="translate(0.000000,834.000000) scale(0.100000,-0.100000)"
fill="#000000" stroke="none">
<path d="M3840 8325 c-200 -17 -394 -45 -570 -85 -1324 -295 -2418 -1208
-2943 -2457 -248 -589 -360 -1256 -317 -1881 62 -883 377 -1684 932 -2369 32
-39 58 -74 58 -77 0 -3 -161 -7 -358 -8 l-357 -3 0 -50 0 -50 410 -3 410 -2
125 -123 c333 -329 672 -573 1075 -775 487 -243 986 -382 1540 -427 236 -19
414 -19 650 0 366 30 652 88 993 201 605 200 1144 530 1608 986 l140 138 429
2 430 3 -1 50 -1 50 -377 3 c-207 1 -376 4 -376 7 0 3 44 60 98 128 392 493
675 1089 806 1702 201 938 79 1900 -346 2750 -85 169 -136 257 -254 436 -651
990 -1708 1659 -2883 1824 -328 46 -612 55 -921 30z m515 -135 c303 -16 499
-44 770 -110 940 -228 1762 -787 2333 -1588 730 -1021 933 -2364 540 -3572
-142 -436 -379 -881 -656 -1229 l-75 -95 -52 210 -52 209 -31 3 c-26 3 -32 -1
-37 -20 -4 -13 -28 -106 -54 -208 -29 -112 -52 -185 -59 -184 -7 1 -39 2 -72
3 l-60 1 0 205 0 205 -25 0 -25 0 2 -222 3 -223 84 -3 c61 -2 87 1 92 10 7 10
9 10 9 1 0 -7 9 -13 20 -13 14 0 22 11 30 43 6 23 13 48 15 55 3 8 27 12 74
12 l70 0 10 -37 c25 -95 26 -88 -25 -143 l-47 -50 -646 4 c-355 2 -657 4 -671
4 -14 0 -1059 -2 -2322 -4 l-2297 -4 -60 67 c-93 104 -223 275 -315 413 -576
865 -795 1887 -625 2915 97 583 339 1164 693 1664 246 347 590 691 937 937
181 128 320 212 524 315 517 261 1040 400 1610 428 83 5 161 9 175 9 14 1 110
-3 215 -8z m2783 -6232 c0 -7 12 -60 26 -118 14 -58 26 -108 26 -112 0 -5 -27
-8 -60 -8 -38 0 -60 4 -60 11 0 25 54 239 60 239 4 0 7 -6 8 -12z m-108 -620
c0 -14 -262 -248 -381 -340 -173 -134 -262 -193 -268 -176 -3 7 -28 105 -56
218 l-52 205 -30 3 -30 3 -52 -208 c-29 -114 -55 -216 -57 -225 -4 -13 0 -18
16 -18 22 0 23 2 40 68 l11 43 71 -3 72 -3 12 -45 c6 -25 15 -52 18 -61 14
-32 -387 -251 -664 -362 -361 -145 -764 -243 -1150 -278 -169 -15 -555 -15
-720 0 -792 73 -1534 373 -2163 874 -106 84 -337 294 -337 305 0 4 1287 7
2860 7 1573 0 2860 -3 2860 -7z m-771 -195 c18 -71 41 -174 41 -189 0 -11 -14
-14 -60 -14 -33 0 -60 3 -60 8 0 25 54 232 61 232 4 0 13 -17 18 -37z"/>
<path d="M3615 7959 c-118 -8 -185 -22 -275 -58 -119 -49 -226 -139 -282 -238
-50 -88 -83 -105 -163 -78 -17 5 -27 -3 -53 -39 -18 -25 -114 -129 -215 -233
-195 -201 -243 -256 -300 -343 -19 -30 -81 -100 -137 -154 -132 -128 -150
-163 -150 -299 0 -96 0 -98 -21 -87 -11 7 -23 9 -26 7 -2 -3 7 -38 20 -79 37
-105 80 -392 62 -410 -3 -3 -21 -2 -40 2 -49 11 -56 -3 -33 -68 27 -78 17
-109 -47 -144 -27 -14 -55 -34 -62 -44 -30 -40 -9 -197 44 -339 35 -95 63
-130 119 -149 78 -26 128 -61 203 -142 109 -117 180 -274 181 -400 0 -61 23
-100 139 -234 136 -156 165 -226 121 -283 -25 -31 -25 -31 3 -68 24 -33 26
-73 17 -284 -4 -107 11 -160 102 -358 69 -153 92 -219 108 -310 12 -67 27 -86
37 -47 10 38 35 17 50 -40 24 -95 106 -249 172 -323 33 -37 110 -130 171 -207
114 -143 171 -201 178 -181 2 7 -12 39 -33 72 -20 32 -39 75 -42 94 -5 31 -3
35 16 35 12 0 76 -20 144 -44 189 -68 235 -79 322 -80 84 -1 132 16 183 64 12
11 22 17 23 13 1 -4 2 -19 2 -33 2 -24 4 -25 57 -22 30 2 80 10 111 18 31 8
78 14 103 14 32 0 46 4 45 13 -4 33 2 58 14 54 6 -2 11 -15 9 -29 -3 -22 4
-29 41 -47 51 -25 66 -26 73 -6 4 8 10 15 15 15 5 0 9 -7 9 -15 0 -25 17 -17
40 19 27 45 55 54 84 27 l22 -20 44 29 c54 36 64 37 78 6 11 -25 101 -66 145
-66 46 0 143 129 205 273 64 146 123 354 197 700 20 96 34 106 126 91 33 -6
61 -9 63 -7 2 2 -1 23 -7 47 -17 75 15 105 50 46 10 -17 26 -30 37 -30 16 0
17 3 8 12 -18 18 -14 88 8 137 32 69 27 92 -29 139 -48 41 -48 41 -54 114 -4
40 -11 99 -16 132 -16 99 -3 150 95 366 36 78 39 92 39 173 0 87 0 87 31 106
78 48 115 121 170 344 37 149 54 189 147 342 121 199 152 328 107 450 -30 83
-30 87 7 97 18 5 38 18 44 30 10 18 8 24 -12 39 -13 10 -27 19 -30 19 -12 0
-109 131 -104 140 3 6 22 10 41 10 33 0 45 12 24 25 -29 18 -50 86 -50 160 0
59 -3 75 -15 75 -8 0 -19 -8 -24 -19 -6 -10 -19 -21 -30 -24 -18 -4 -19 -1
-14 43 5 44 3 50 -28 83 -19 20 -71 55 -116 77 -155 76 -188 127 -203 313 -14
160 -25 201 -66 237 -36 32 -72 38 -92 18 -10 -10 -15 -10 -22 2 -14 22 -12
70 5 144 11 46 12 72 5 90 -10 29 -40 35 -59 12 -6 -8 -21 -16 -32 -19 -15 -4
-23 2 -33 27 -26 63 -72 89 -248 141 -47 14 -103 37 -123 50 -45 31 -59 31
-79 -1 -29 -43 -50 -28 -56 41 l-5 60 -50 8 c-27 4 -115 6 -195 3 -224 -9
-262 0 -386 94 -88 67 -429 123 -659 109z m650 -1097 c17 -8 64 -48 105 -87
133 -129 187 -143 258 -69 l44 46 84 -37 c226 -101 315 -187 400 -389 21 -50
39 -75 66 -95 56 -39 73 -81 73 -176 0 -44 -4 -116 -9 -161 -12 -114 1 -136
93 -164 110 -34 106 -22 105 -304 0 -251 -12 -409 -45 -611 -50 -306 -114
-498 -191 -574 -46 -45 -167 -103 -228 -109 -62 -6 -82 10 -143 111 -55 94
-77 113 -224 200 -161 94 -209 118 -308 152 -68 24 -97 28 -192 29 l-112 1
-145 -73 c-187 -93 -323 -173 -365 -214 -19 -18 -60 -71 -92 -118 -73 -106
-76 -110 -121 -143 -40 -31 -41 -30 -57 31 -11 39 -14 42 -46 42 -27 0 -39 -7
-57 -30 -12 -16 -25 -30 -29 -30 -3 0 -16 28 -28 63 -29 81 -78 205 -136 342
-184 436 -227 654 -189 956 l6 46 53 6 c70 7 91 19 117 70 26 48 28 108 14
402 -16 331 48 587 182 728 85 89 182 112 338 79 208 -44 248 -41 436 39 66
28 142 55 167 59 58 10 137 2 176 -18z m-1633 -2059 c51 -49 58 -138 14 -185
l-21 -23 -6 42 c-3 25 -22 66 -47 104 -23 34 -42 71 -42 82 0 17 5 19 37 14
20 -4 49 -19 65 -34z m1714 -767 c130 -44 151 -55 157 -78 18 -69 -55 -72
-197 -8 -41 19 -62 22 -130 18 -69 -4 -95 -10 -174 -47 -85 -39 -100 -43 -153
-39 -75 5 -94 21 -59 50 38 31 154 87 224 108 137 41 201 41 332 -4z"/>
<path d="M4770 5843 c-14 -3 -97 -23 -184 -44 -190 -47 -292 -58 -354 -36
l-43 15 3 -35 c4 -49 37 -71 117 -80 50 -5 71 -12 95 -33 l30 -28 6 -140 c6
-157 13 -173 79 -192 27 -7 112 -4 111 4 0 0 -9 30 -20 64 -25 81 -25 88 5
117 31 32 53 32 61 1 22 -87 161 -81 230 10 l26 34 36 -30 c43 -35 102 -42
102 -12 0 47 -66 91 -195 130 -81 25 -138 57 -132 75 7 21 156 59 242 60 80 2
132 -11 168 -41 22 -20 22 -10 -3 38 -50 98 -114 130 -255 128 -55 0 -111 -3
-125 -5z"/>
<path d="M3333 5790 c-133 -20 -223 -94 -258 -210 l-7 -25 24 23 c57 52 193
81 291 63 83 -15 137 -31 137 -39 -1 -8 -155 -79 -201 -92 -29 -9 -31 -8 -25
15 l6 25 -62 -24 c-35 -13 -72 -27 -83 -32 -54 -20 -69 -60 -39 -102 21 -30
50 -28 143 13 90 40 83 41 200 -25 56 -31 111 -39 129 -17 6 6 14 25 17 40 l7
28 22 -20 c12 -12 43 -28 69 -37 26 -9 45 -20 42 -25 -8 -11 -73 -29 -110 -29
-40 -1 -115 -35 -115 -54 0 -35 136 -49 197 -19 43 20 90 83 127 171 69 162
81 184 116 216 20 18 58 41 83 51 52 20 61 34 45 71 -10 21 -17 24 -37 19 -66
-15 -225 -16 -366 -2 -214 23 -293 27 -352 17z"/>
<path d="M4334 4841 c-32 -20 -74 -71 -74 -90 0 -17 126 -14 160 4 23 12 30
23 30 44 0 53 -63 75 -116 42z"/>
<path d="M3910 4839 c-73 -30 -80 -92 -14 -127 16 -8 35 -7 83 9 80 24 102 24
136 -3 l28 -22 -7 45 c-4 29 -17 54 -36 74 -26 26 -37 30 -97 32 -38 2 -79 -2
-93 -8z"/>
<path d="M5385 2024 c-80 -27 -122 -122 -112 -254 10 -137 63 -210 154 -210
33 0 50 7 75 29 26 23 30 32 21 42 -9 9 -18 7 -39 -10 -64 -50 -144 -2 -161
96 -33 202 55 332 169 251 25 -18 47 4 28 27 -31 37 -80 48 -135 29z"/>
<path d="M5806 2009 c-54 -42 -71 -93 -71 -209 0 -90 3 -112 24 -153 27 -55
70 -87 119 -87 54 0 88 24 118 86 24 49 28 70 28 143 1 106 -15 160 -58 206
-30 31 -39 35 -83 35 -36 0 -58 -6 -77 -21z m126 -36 c34 -30 50 -96 46 -190
-4 -104 -27 -162 -70 -177 -91 -32 -155 98 -128 259 18 112 89 163 152 108z"/>
<path d="M4480 1800 c0 -190 2 -221 15 -227 9 -3 19 -2 23 2 4 3 9 105 10 226
l4 219 -26 0 -26 0 0 -220z"/>
<path d="M4632 1798 c3 -203 5 -223 21 -226 16 -3 17 11 17 177 0 100 3 181 8
181 4 0 41 -81 82 -180 71 -172 76 -180 102 -180 l28 0 0 225 c0 218 -1 225
-20 225 -19 0 -20 -7 -20 -169 0 -94 -4 -172 -8 -175 -5 -3 -40 73 -79 167
-69 167 -72 172 -102 175 l-31 3 2 -223z"/>
<path d="M5060 2018 c0 -2 -25 -100 -55 -218 -30 -118 -55 -218 -55 -222 0
-13 40 -9 44 5 2 6 9 31 15 55 l12 42 69 0 69 0 11 -42 c17 -66 18 -68 40 -68
11 0 20 6 19 13 0 6 -24 107 -53 222 l-52 210 -32 3 c-18 2 -32 2 -32 0z m63
-165 c15 -65 27 -121 27 -125 0 -5 -27 -8 -60 -8 -33 0 -60 3 -60 8 0 20 55
242 60 242 3 0 18 -53 33 -117z"/>
<path d="M5600 1795 c0 -218 1 -225 20 -225 19 0 20 7 20 225 0 218 -1 225
-20 225 -19 0 -20 -7 -20 -225z"/>
<path d="M6240 1795 l0 -225 85 0 c78 0 85 2 85 20 0 18 -7 20 -65 20 l-65 0
0 205 c0 198 -1 205 -20 205 -19 0 -20 -7 -20 -225z"/>
<path d="M6440 1858 c0 -175 8 -223 44 -265 18 -21 34 -27 77 -31 48 -4 59 -1
86 22 51 43 56 68 54 304 -1 123 -2 132 -20 132 -18 0 -20 -10 -23 -179 -3
-164 -5 -182 -24 -208 -35 -47 -103 -44 -129 7 -12 23 -15 67 -15 205 l0 175
-25 0 -25 0 0 -162z"/>
<path d="M1062 1863 l3 -148 78 -3 c48 -2 77 1 77 8 0 6 -28 10 -70 10 l-70 0
0 60 0 60 35 0 c44 0 46 18 3 22 -33 3 -33 4 -36 61 l-3 57 65 0 c36 0 68 5
71 10 4 6 -23 10 -75 10 l-81 0 3 -147z"/>
<path d="M1286 1989 c-31 -25 -35 -68 -7 -93 10 -9 38 -27 62 -39 54 -27 70
-63 45 -101 -13 -21 -25 -26 -55 -26 -22 0 -44 6 -51 15 -16 19 -31 20 -24 1
9 -23 60 -39 99 -32 25 5 39 15 50 36 30 58 11 98 -62 130 -52 23 -63 34 -63
66 0 40 48 57 110 40 24 -7 24 -6 6 8 -28 22 -78 20 -110 -5z"/>
<path d="M1498 1990 c-27 -21 -28 -24 -28 -126 0 -98 2 -107 25 -129 15 -16
36 -25 54 -25 38 0 85 39 79 65 -3 17 -6 16 -18 -10 -12 -24 -23 -31 -50 -33
-62 -5 -75 14 -78 115 -4 116 7 138 68 138 37 0 47 -4 55 -22 11 -25 25 -31
25 -10 0 50 -86 74 -132 37z"/>
<path d="M1682 1879 c3 -123 4 -132 27 -150 31 -25 81 -24 109 1 21 20 22 29
20 153 l-2 132 -5 -126 c-7 -140 -14 -159 -66 -159 -56 0 -65 21 -65 158 0 81
-4 122 -11 122 -7 0 -10 -42 -7 -131z"/>
<path d="M1912 1863 l3 -148 78 -3 c48 -2 77 1 77 8 0 6 -28 10 -70 10 l-70 0
0 60 0 60 35 0 c19 0 35 5 35 10 0 6 -16 10 -35 10 l-36 0 3 61 3 62 63 0 c35
0 65 4 68 9 3 4 -31 8 -76 8 l-81 0 3 -147z"/>
<path d="M2122 1863 l3 -148 68 -3 c42 -2 67 1 67 8 0 6 -25 10 -60 10 l-60 0
0 134 c0 82 -4 137 -10 141 -7 4 -10 -42 -8 -142z"/>
<path d="M2331 1870 c-23 -78 -40 -147 -38 -153 2 -7 9 5 16 26 l13 37 63 0
c62 0 64 -1 70 -30 4 -16 11 -30 17 -30 6 0 8 8 5 18 -43 145 -84 266 -93 269
-5 2 -29 -59 -53 -137z m83 14 l23 -79 -49 -3 c-28 -2 -52 -1 -54 1 -2 2 8 41
22 86 14 46 27 81 30 79 2 -3 15 -40 28 -84z"/>
<path d="M2610 1859 l0 -151 61 4 c89 6 99 22 99 150 0 92 -2 101 -25 123 -20
21 -34 25 -80 25 l-55 0 0 -151z m128 118 c8 -6 12 -42 12 -113 0 -123 -8
-137 -79 -132 l-46 3 0 125 0 125 30 5 c34 7 64 2 83 -13z"/>
<path d="M2838 1943 c-1 -59 -1 -204 1 -225 1 -12 149 -10 156 2 3 5 -24 10
-67 12 l-73 3 -3 58 -3 57 35 0 c19 0 38 5 41 10 4 6 -10 10 -34 10 l-41 0 0
60 0 60 69 0 c39 0 73 5 76 10 4 6 -23 10 -74 10 l-81 0 -2 -67z"/>
<path d="M3149 1991 c-21 -17 -24 -29 -28 -105 -4 -100 2 -129 29 -156 22 -22
70 -26 100 -10 52 28 52 252 0 280 -30 16 -76 12 -101 -9z m105 -25 c20 -32
21 -182 1 -212 -19 -29 -69 -33 -97 -7 -26 24 -27 202 0 225 36 32 75 29 96
-6z"/>
<path d="M3350 1865 c0 -90 4 -145 10 -145 6 0 10 28 10 65 l0 65 35 0 c44 0
46 18 3 22 l-33 3 0 59 0 59 62 -1 c35 0 65 3 68 9 4 5 -27 9 -74 9 l-81 0 0
-145z"/>
<path d="M3550 1865 c0 -90 4 -145 10 -145 6 0 10 55 10 145 0 90 -4 145 -10
145 -6 0 -10 -55 -10 -145z"/>
<path d="M3680 2003 c-33 -13 -39 -38 -40 -145 0 -103 1 -107 26 -127 36 -28
79 -27 109 4 26 25 31 40 16 49 -5 3 -12 -5 -15 -19 -11 -44 -91 -48 -113 -5
-15 30 -17 158 -3 195 18 47 95 52 115 7 5 -12 13 -22 17 -22 15 0 8 21 -17
45 -23 24 -61 31 -95 18z"/>
<path d="M3850 1865 c0 -90 4 -145 10 -145 6 0 10 55 10 145 0 90 -4 145 -10
145 -6 0 -10 -55 -10 -145z"/>
<path d="M3967 1998 c-25 -20 -37 -63 -37 -139 0 -96 18 -136 65 -145 46 -8
82 8 96 43 6 16 9 70 7 121 -3 84 -5 96 -27 113 -27 22 -79 25 -104 7z m105
-31 c4 -7 8 -53 8 -102 0 -108 -13 -135 -65 -135 -51 0 -65 27 -65 128 0 90 9
119 43 131 24 9 67 -3 79 -22z"/>
<path d="M4187 1999 c-26 -15 -38 -54 -27 -85 7 -17 27 -33 64 -49 54 -24 66
-38 66 -80 0 -50 -69 -73 -118 -39 -12 8 -22 11 -22 5 0 -18 44 -41 78 -41 45
0 82 38 82 83 0 38 -26 67 -80 89 -50 21 -66 43 -54 76 11 30 45 42 88 30 33
-9 48 -2 26 12 -20 13 -81 12 -103 -1z"/>
<path d="M5274 1251 c-38 -16 -64 -60 -64 -107 0 -64 17 -91 82 -130 63 -38
86 -72 82 -117 -6 -63 -57 -87 -118 -57 -53 26 -74 10 -33 -26 21 -18 40 -24
75 -24 54 0 85 18 107 60 35 68 7 141 -72 186 -62 35 -83 61 -83 105 0 67 66
101 124 64 22 -14 24 -14 30 1 4 10 0 24 -8 32 -17 17 -93 25 -122 13z"/>
<path d="M4488 1244 c-5 -4 -8 -106 -8 -226 l0 -218 79 0 c72 0 83 3 112 27
51 43 69 94 69 198 0 75 -4 99 -22 135 -34 65 -66 84 -151 88 -40 2 -75 0 -79
-4z m160 -59 c38 -32 55 -95 50 -182 -7 -120 -57 -179 -142 -171 l-31 3 -3
188 -2 187 49 0 c38 0 56 -6 79 -25z"/>
<path d="M4873 1208 c-22 -89 -93 -364 -99 -386 -6 -21 -4 -23 16 -20 19 2 26
14 38 56 l15 52 69 0 c46 0 70 -4 73 -12 2 -7 9 -32 15 -55 8 -32 16 -43 30
-43 11 0 20 6 20 13 0 6 -24 106 -53 222 l-52 210 -31 3 c-28 3 -31 0 -41 -40z
m75 -136 l29 -122 -21 -5 c-31 -7 -106 -2 -106 8 0 8 48 210 56 236 7 23 11
11 42 -117z"/>
<path d="M5500 1025 l0 -225 25 0 25 0 0 225 0 225 -25 0 -25 0 0 -225z"/>
<path d="M5650 1025 l0 -225 85 0 c74 0 85 2 85 18 0 14 -9 17 -47 17 -88 0
-83 -12 -83 215 0 193 -1 200 -20 200 -19 0 -20 -7 -20 -225z"/>
<path d="M5815 1231 c5 -17 84 -339 100 -409 5 -19 11 -23 37 -20 l31 3 53
210 c29 116 53 216 54 223 0 8 -9 12 -22 10 -18 -2 -24 -14 -35 -63 -44 -205
-76 -326 -82 -319 -4 5 -15 45 -25 89 -63 283 -66 295 -93 295 -20 0 -23 -4
-18 -19z"/>
</g>
</svg>
